<svg xmlns="http://www.w3.org/2000/svg" viewBox="0 0 523 411"><defs><style>.cls-1{fill:#f0f0f0;}</style></defs><title>logo white</title><g id="final"><path class="cls-1" d="M263.82,13.34l60.06,77.22a1,1,0,0,1-.69,1.64L262.11,99a.81.81,0,0,1-.22,0L200.78,92.2a1,1,0,0,1-.7-1.63L220.69,63.4a1.05,1.05,0,0,1,.82-.4H261a1,1,0,0,0,1-1V14A1,1,0,0,1,263.82,13.34Z"/><path class="cls-1" d="M263.46,97.69l105.32,50.2a1.1,1.1,0,0,1,.37.31l20.76,27.37a1,1,0,0,1-.7,1.62L262.11,191h-.22l-127.1-13.8a1,1,0,0,1-.7-1.62l20.6-27.17a1.05,1.05,0,0,1,.82-.4H261a1,1,0,0,0,1-1V98.61A1,1,0,0,1,263.46,97.69Z"/><path class="cls-1" d="M263.31,189.39,442.68,242.9a1,1,0,0,1,.52.37l20.73,27.32a1,1,0,0,1-.69,1.63L262.16,297h-.25L60.73,272.21a1,1,0,0,1-.68-1.6L81.7,243.4a1,1,0,0,1,.8-.4H261a1,1,0,0,0,1-1V190.37A1,1,0,0,1,263.31,189.39Z"/><path class="cls-1" d="M263.18,295.19l245.94,39a1,1,0,0,1,.09,2l-247,62.72a1.06,1.06,0,0,1-.5,0L17.89,337a1,1,0,0,1,.25-2H261a1,1,0,0,0,1-1V296.19A1,1,0,0,1,263.18,295.19Z"/></g></svg>